<?xml version="1.0" encoding="UTF-8" standalone="no" ?>
<!DOCTYPE svg PUBLIC "-//W3C//DTD SVG 1.1//EN" "http://www.w3.org/Graphics/SVG/1.1/DTD/svg11.dtd">
<svg xmlns="http://www.w3.org/2000/svg" xmlns:xlink="http://www.w3.org/1999/xlink" version="1.1" width="600" height="400" viewBox="0 0 600 400" xml:space="preserve">
<desc>Created with Fabric.js 3.6.3</desc>
<defs>
</defs>
<g transform="matrix(0.84 0 0 0.75 233.67 218.87)"  >
<g style=""   >
		<g transform="matrix(1 0 0 1 31.44 -137.12)"  >
<path style="stroke: rgb(80,80,80); stroke-opacity: 0.79; stroke-width: 0.58; stroke-dasharray: none; stroke-linecap: butt; stroke-dashoffset: 0; stroke-linejoin: miter; stroke-miterlimit: 4; fill: rgb(0,0,0); fill-rule: nonzero; opacity: 1;"  transform=" translate(-591, -200.5)" d="M 524 276.5 L 658 124.5" stroke-linecap="round" />
</g>
		<g transform="matrix(1 0 0 1 31.44 -118.12)"  >
<path style="stroke: rgb(80,80,80); stroke-opacity: 0.79; stroke-width: 0.58; stroke-dasharray: none; stroke-linecap: butt; stroke-dashoffset: 0; stroke-linejoin: miter; stroke-miterlimit: 4; fill: rgb(0,0,0); fill-rule: nonzero; opacity: 1;"  transform=" translate(-591, -219.5)" d="M 524 276.5 L 658 162.5" stroke-linecap="round" />
</g>
		<g transform="matrix(1 0 0 1 31.44 -99.12)"  >
<path style="stroke: rgb(80,80,80); stroke-opacity: 0.79; stroke-width: 0.58; stroke-dasharray: none; stroke-linecap: butt; stroke-dashoffset: 0; stroke-linejoin: miter; stroke-miterlimit: 4; fill: rgb(0,0,0); fill-rule: nonzero; opacity: 1;"  transform=" translate(-591, -238.5)" d="M 524 276.5 L 658 200.5" stroke-linecap="round" />
</g>
		<g transform="matrix(1 0 0 1 31.44 -80.12)"  >
<path style="stroke: rgb(80,80,80); stroke-opacity: 0.79; stroke-width: 0.58; stroke-dasharray: none; stroke-linecap: butt; stroke-dashoffset: 0; stroke-linejoin: miter; stroke-miterlimit: 4; fill: rgb(0,0,0); fill-rule: nonzero; opacity: 1;"  transform=" translate(-591, -257.5)" d="M 524 276.5 L 658 238.5" stroke-linecap="round" />
</g>
		<g transform="matrix(1 0 0 1 31.44 -61.12)"  >
<path style="stroke: rgb(80,80,80); stroke-opacity: 0.79; stroke-width: 0.58; stroke-dasharray: none; stroke-linecap: butt; stroke-dashoffset: 0; stroke-linejoin: miter; stroke-miterlimit: 4; fill: rgb(0,0,0); fill-rule: nonzero; opacity: 1;"  transform=" translate(-591, -276.5)" d="M 524 276.5 L 658 276.5" stroke-linecap="round" />
</g>
		<g transform="matrix(1 0 0 1 31.44 -42.12)"  >
<path style="stroke: rgb(80,80,80); stroke-opacity: 0.79; stroke-width: 0.58; stroke-dasharray: none; stroke-linecap: butt; stroke-dashoffset: 0; stroke-linejoin: miter; stroke-miterlimit: 4; fill: rgb(0,0,0); fill-rule: nonzero; opacity: 1;"  transform=" translate(-591, -295.5)" d="M 524 276.5 L 658 314.5" stroke-linecap="round" />
</g>
		<g transform="matrix(1 0 0 1 31.44 -23.12)"  >
<path style="stroke: rgb(80,80,80); stroke-opacity: 0.79; stroke-width: 0.58; stroke-dasharray: none; stroke-linecap: butt; stroke-dashoffset: 0; stroke-linejoin: miter; stroke-miterlimit: 4; fill: rgb(0,0,0); fill-rule: nonzero; opacity: 1;"  transform=" translate(-591, -314.5)" d="M 524 276.5 L 658 352.5" stroke-linecap="round" />
</g>
		<g transform="matrix(1 0 0 1 31.44 -4.12)"  >
<path style="stroke: rgb(80,80,80); stroke-opacity: 0.79; stroke-width: 0.58; stroke-dasharray: none; stroke-linecap: butt; stroke-dashoffset: 0; stroke-linejoin: miter; stroke-miterlimit: 4; fill: rgb(0,0,0); fill-rule: nonzero; opacity: 1;"  transform=" translate(-591, -333.5)" d="M 524 276.5 L 658 390.5" stroke-linecap="round" />
</g>
		<g transform="matrix(1 0 0 1 31.44 14.88)"  >
<path style="stroke: rgb(80,80,80); stroke-opacity: 0.79; stroke-width: 0.58; stroke-dasharray: none; stroke-linecap: butt; stroke-dashoffset: 0; stroke-linejoin: miter; stroke-miterlimit: 4; fill: rgb(0,0,0); fill-rule: nonzero; opacity: 1;"  transform=" translate(-591, -352.5)" d="M 524 276.5 L 658 428.5" stroke-linecap="round" />
</g>
		<g transform="matrix(1 0 0 1 31.44 33.88)"  >
<path style="stroke: rgb(80,80,80); stroke-opacity: 0.79; stroke-width: 0.58; stroke-dasharray: none; stroke-linecap: butt; stroke-dashoffset: 0; stroke-linejoin: miter; stroke-miterlimit: 4; fill: rgb(0,0,0); fill-rule: nonzero; opacity: 1;"  transform=" translate(-591, -371.5)" d="M 524 276.5 L 658 466.5" stroke-linecap="round" />
</g>
		<g transform="matrix(1 0 0 1 31.44 52.88)"  >
<path style="stroke: rgb(80,80,80); stroke-opacity: 0.79; stroke-width: 0.58; stroke-dasharray: none; stroke-linecap: butt; stroke-dashoffset: 0; stroke-linejoin: miter; stroke-miterlimit: 4; fill: rgb(0,0,0); fill-rule: nonzero; opacity: 1;"  transform=" translate(-591, -390.5)" d="M 524 276.5 L 658 504.5" stroke-linecap="round" />
</g>
		<g transform="matrix(1 0 0 1 31.44 -118.12)"  >
<path style="stroke: rgb(80,80,80); stroke-opacity: 0.79; stroke-width: 0.58; stroke-dasharray: none; stroke-linecap: butt; stroke-dashoffset: 0; stroke-linejoin: miter; stroke-miterlimit: 4; fill: rgb(0,0,0); fill-rule: nonzero; opacity: 1;"  transform=" translate(-591, -219.5)" d="M 524 314.5 L 658 124.5" stroke-linecap="round" />
</g>
		<g transform="matrix(1 0 0 1 31.44 -99.12)"  >
<path style="stroke: rgb(80,80,80); stroke-opacity: 0.79; stroke-width: 0.58; stroke-dasharray: none; stroke-linecap: butt; stroke-dashoffset: 0; stroke-linejoin: miter; stroke-miterlimit: 4; fill: rgb(0,0,0); fill-rule: nonzero; opacity: 1;"  transform=" translate(-591, -238.5)" d="M 524 314.5 L 658 162.5" stroke-linecap="round" />
</g>
		<g transform="matrix(1 0 0 1 31.44 -80.12)"  >
<path style="stroke: rgb(80,80,80); stroke-opacity: 0.79; stroke-width: 0.58; stroke-dasharray: none; stroke-linecap: butt; stroke-dashoffset: 0; stroke-linejoin: miter; stroke-miterlimit: 4; fill: rgb(0,0,0); fill-rule: nonzero; opacity: 1;"  transform=" translate(-591, -257.5)" d="M 524 314.5 L 658 200.5" stroke-linecap="round" />
</g>
		<g transform="matrix(1 0 0 1 31.44 -61.12)"  >
<path style="stroke: rgb(80,80,80); stroke-opacity: 0.79; stroke-width: 0.58; stroke-dasharray: none; stroke-linecap: butt; stroke-dashoffset: 0; stroke-linejoin: miter; stroke-miterlimit: 4; fill: rgb(0,0,0); fill-rule: nonzero; opacity: 1;"  transform=" translate(-591, -276.5)" d="M 524 314.5 L 658 238.5" stroke-linecap="round" />
</g>
		<g transform="matrix(1 0 0 1 31.44 -42.12)"  >
<path style="stroke: rgb(80,80,80); stroke-opacity: 0.79; stroke-width: 0.58; stroke-dasharray: none; stroke-linecap: butt; stroke-dashoffset: 0; stroke-linejoin: miter; stroke-miterlimit: 4; fill: rgb(0,0,0); fill-rule: nonzero; opacity: 1;"  transform=" translate(-591, -295.5)" d="M 524 314.5 L 658 276.5" stroke-linecap="round" />
</g>
		<g transform="matrix(1 0 0 1 31.44 -23.12)"  >
<path style="stroke: rgb(80,80,80); stroke-opacity: 0.79; stroke-width: 0.58; stroke-dasharray: none; stroke-linecap: butt; stroke-dashoffset: 0; stroke-linejoin: miter; stroke-miterlimit: 4; fill: rgb(0,0,0); fill-rule: nonzero; opacity: 1;"  transform=" translate(-591, -314.5)" d="M 524 314.5 L 658 314.5" stroke-linecap="round" />
</g>
		<g transform="matrix(1 0 0 1 31.44 -4.12)"  >
<path style="stroke: rgb(80,80,80); stroke-opacity: 0.79; stroke-width: 0.58; stroke-dasharray: none; stroke-linecap: butt; stroke-dashoffset: 0; stroke-linejoin: miter; stroke-miterlimit: 4; fill: rgb(0,0,0); fill-rule: nonzero; opacity: 1;"  transform=" translate(-591, -333.5)" d="M 524 314.5 L 658 352.5" stroke-linecap="round" />
</g>
		<g transform="matrix(1 0 0 1 31.44 14.88)"  >
<path style="stroke: rgb(80,80,80); stroke-opacity: 0.79; stroke-width: 0.58; stroke-dasharray: none; stroke-linecap: butt; stroke-dashoffset: 0; stroke-linejoin: miter; stroke-miterlimit: 4; fill: rgb(0,0,0); fill-rule: nonzero; opacity: 1;"  transform=" translate(-591, -352.5)" d="M 524 314.5 L 658 390.5" stroke-linecap="round" />
</g>
		<g transform="matrix(1 0 0 1 31.44 33.88)"  >
<path style="stroke: rgb(80,80,80); stroke-opacity: 0.79; stroke-width: 0.58; stroke-dasharray: none; stroke-linecap: butt; stroke-dashoffset: 0; stroke-linejoin: miter; stroke-miterlimit: 4; fill: rgb(0,0,0); fill-rule: nonzero; opacity: 1;"  transform=" translate(-591, -371.5)" d="M 524 314.5 L 658 428.5" stroke-linecap="round" />
</g>
		<g transform="matrix(1 0 0 1 31.44 52.88)"  >
<path style="stroke: rgb(80,80,80); stroke-opacity: 0.79; stroke-width: 0.58; stroke-dasharray: none; stroke-linecap: butt; stroke-dashoffset: 0; stroke-linejoin: miter; stroke-miterlimit: 4; fill: rgb(0,0,0); fill-rule: nonzero; opacity: 1;"  transform=" translate(-591, -390.5)" d="M 524 314.5 L 658 466.5" stroke-linecap="round" />
</g>
		<g transform="matrix(1 0 0 1 31.44 71.88)"  >
<path style="stroke: rgb(80,80,80); stroke-opacity: 0.79; stroke-width: 0.58; stroke-dasharray: none; stroke-linecap: butt; stroke-dashoffset: 0; stroke-linejoin: miter; stroke-miterlimit: 4; fill: rgb(0,0,0); fill-rule: nonzero; opacity: 1;"  transform=" translate(-591, -409.5)" d="M 524 314.5 L 658 504.5" stroke-linecap="round" />
</g>
		<g transform="matrix(1 0 0 1 165.44 -146.62)"  >
<path style="stroke: rgb(80,80,80); stroke-opacity: 0.79; stroke-width: 0.58; stroke-dasharray: none; stroke-linecap: butt; stroke-dashoffset: 0; stroke-linejoin: miter; stroke-miterlimit: 4; fill: rgb(0,0,0); fill-rule: nonzero; opacity: 1;"  transform=" translate(-725, -191)" d="M 658 86.5 L 792 295.5" stroke-linecap="round" />
</g>
		<g transform="matrix(1 0 0 1 165.44 -127.62)"  >
<path style="stroke: rgb(80,80,80); stroke-opacity: 0.79; stroke-width: 0.58; stroke-dasharray: none; stroke-linecap: butt; stroke-dashoffset: 0; stroke-linejoin: miter; stroke-miterlimit: 4; fill: rgb(0,0,0); fill-rule: nonzero; opacity: 1;"  transform=" translate(-725, -210)" d="M 658 124.5 L 792 295.5" stroke-linecap="round" />
</g>
		<g transform="matrix(1 0 0 1 165.44 -108.62)"  >
<path style="stroke: rgb(80,80,80); stroke-opacity: 0.79; stroke-width: 0.58; stroke-dasharray: none; stroke-linecap: butt; stroke-dashoffset: 0; stroke-linejoin: miter; stroke-miterlimit: 4; fill: rgb(0,0,0); fill-rule: nonzero; opacity: 1;"  transform=" translate(-725, -229)" d="M 658 162.5 L 792 295.5" stroke-linecap="round" />
</g>
		<g transform="matrix(1 0 0 1 165.44 -89.62)"  >
<path style="stroke: rgb(80,80,80); stroke-opacity: 0.79; stroke-width: 0.58; stroke-dasharray: none; stroke-linecap: butt; stroke-dashoffset: 0; stroke-linejoin: miter; stroke-miterlimit: 4; fill: rgb(0,0,0); fill-rule: nonzero; opacity: 1;"  transform=" translate(-725, -248)" d="M 658 200.5 L 792 295.5" stroke-linecap="round" />
</g>
		<g transform="matrix(1 0 0 1 165.44 -70.62)"  >
<path style="stroke: rgb(80,80,80); stroke-opacity: 0.79; stroke-width: 0.58; stroke-dasharray: none; stroke-linecap: butt; stroke-dashoffset: 0; stroke-linejoin: miter; stroke-miterlimit: 4; fill: rgb(0,0,0); fill-rule: nonzero; opacity: 1;"  transform=" translate(-725, -267)" d="M 658 238.5 L 792 295.5" stroke-linecap="round" />
</g>
		<g transform="matrix(1 0 0 1 165.44 -51.62)"  >
<path style="stroke: rgb(80,80,80); stroke-opacity: 0.79; stroke-width: 0.58; stroke-dasharray: none; stroke-linecap: butt; stroke-dashoffset: 0; stroke-linejoin: miter; stroke-miterlimit: 4; fill: rgb(0,0,0); fill-rule: nonzero; opacity: 1;"  transform=" translate(-725, -286)" d="M 658 276.5 L 792 295.5" stroke-linecap="round" />
</g>
		<g transform="matrix(1 0 0 1 165.44 -32.62)"  >
<path style="stroke: rgb(80,80,80); stroke-opacity: 0.79; stroke-width: 0.58; stroke-dasharray: none; stroke-linecap: butt; stroke-dashoffset: 0; stroke-linejoin: miter; stroke-miterlimit: 4; fill: rgb(0,0,0); fill-rule: nonzero; opacity: 1;"  transform=" translate(-725, -305)" d="M 658 314.5 L 792 295.5" stroke-linecap="round" />
</g>
		<g transform="matrix(1 0 0 1 165.44 -13.62)"  >
<path style="stroke: rgb(80,80,80); stroke-opacity: 0.79; stroke-width: 0.58; stroke-dasharray: none; stroke-linecap: butt; stroke-dashoffset: 0; stroke-linejoin: miter; stroke-miterlimit: 4; fill: rgb(0,0,0); fill-rule: nonzero; opacity: 1;"  transform=" translate(-725, -324)" d="M 658 352.5 L 792 295.5" stroke-linecap="round" />
</g>
		<g transform="matrix(1 0 0 1 165.44 5.38)"  >
<path style="stroke: rgb(80,80,80); stroke-opacity: 0.79; stroke-width: 0.58; stroke-dasharray: none; stroke-linecap: butt; stroke-dashoffset: 0; stroke-linejoin: miter; stroke-miterlimit: 4; fill: rgb(0,0,0); fill-rule: nonzero; opacity: 1;"  transform=" translate(-725, -343)" d="M 658 390.5 L 792 295.5" stroke-linecap="round" />
</g>
		<g transform="matrix(1 0 0 1 165.44 24.38)"  >
<path style="stroke: rgb(80,80,80); stroke-opacity: 0.79; stroke-width: 0.58; stroke-dasharray: none; stroke-linecap: butt; stroke-dashoffset: 0; stroke-linejoin: miter; stroke-miterlimit: 4; fill: rgb(0,0,0); fill-rule: nonzero; opacity: 1;"  transform=" translate(-725, -362)" d="M 658 428.5 L 792 295.5" stroke-linecap="round" />
</g>
		<g transform="matrix(1 0 0 1 165.44 43.38)"  >
<path style="stroke: rgb(80,80,80); stroke-opacity: 0.79; stroke-width: 0.58; stroke-dasharray: none; stroke-linecap: butt; stroke-dashoffset: 0; stroke-linejoin: miter; stroke-miterlimit: 4; fill: rgb(0,0,0); fill-rule: nonzero; opacity: 1;"  transform=" translate(-725, -381)" d="M 658 466.5 L 792 295.5" stroke-linecap="round" />
</g>
		<g transform="matrix(1 0 0 1 165.44 62.38)"  >
<path style="stroke: rgb(80,80,80); stroke-opacity: 0.79; stroke-width: 0.58; stroke-dasharray: none; stroke-linecap: butt; stroke-dashoffset: 0; stroke-linejoin: miter; stroke-miterlimit: 4; fill: rgb(0,0,0); fill-rule: nonzero; opacity: 1;"  transform=" translate(-725, -400)" d="M 658 504.5 L 792 295.5" stroke-linecap="round" />
</g>
		<g transform="matrix(1 0 0 1 31.44 -156.12)"  >
<path style="stroke: rgb(80,80,80); stroke-opacity: 0.79; stroke-width: 0.58; stroke-dasharray: none; stroke-linecap: butt; stroke-dashoffset: 0; stroke-linejoin: miter; stroke-miterlimit: 4; fill: rgb(0,0,0); fill-rule: nonzero; opacity: 1;"  transform=" translate(-591, -181.5)" d="M 524 276.5 L 658 86.5" stroke-linecap="round" />
</g>
		<g transform="matrix(1 0 0 1 31.44 -137.12)"  >
<path style="stroke: rgb(80,80,80); stroke-opacity: 0.79; stroke-width: 0.58; stroke-dasharray: none; stroke-linecap: butt; stroke-dashoffset: 0; stroke-linejoin: miter; stroke-miterlimit: 4; fill: rgb(0,0,0); fill-rule: nonzero; opacity: 1;"  transform=" translate(-591, -200.5)" d="M 524 314.5 L 658 86.5" stroke-linecap="round" />
</g>
		<g transform="matrix(1 0 0 1 -35.56 -61.12)"  >
<circle style="stroke: rgb(51,51,51); stroke-width: 1; stroke-dasharray: none; stroke-linecap: butt; stroke-dashoffset: 0; stroke-linejoin: miter; stroke-miterlimit: 4; fill: rgb(255,255,255); fill-rule: nonzero; opacity: 1;"  cx="0" cy="0" r="9" />
</g>
		<g transform="matrix(1 0 0 1 -29.87 205.32)" style=""  >
		<text xml:space="preserve" font-family="Times New Roman" font-size="12" font-style="normal" font-weight="normal" style="stroke: none; stroke-width: 1; stroke-dasharray: none; stroke-linecap: butt; stroke-dashoffset: 0; stroke-linejoin: miter; stroke-miterlimit: 4; fill: rgb(0,0,0); fill-rule: nonzero; opacity: 1; white-space: pre;" ><tspan x="-40.69" y="3.77" >Input Layer ∈ ℝ²</tspan></text>
</g>
		<g transform="matrix(1 0 0 1 -35.56 -23.12)"  >
<circle style="stroke: rgb(51,51,51); stroke-width: 1; stroke-dasharray: none; stroke-linecap: butt; stroke-dashoffset: 0; stroke-linejoin: miter; stroke-miterlimit: 4; fill: rgb(255,255,255); fill-rule: nonzero; opacity: 1;"  cx="0" cy="0" r="9" />
</g>
		<g transform="matrix(1 0 0 1 98.44 -251.12)"  >
<circle style="stroke: rgb(51,51,51); stroke-width: 1; stroke-dasharray: none; stroke-linecap: butt; stroke-dashoffset: 0; stroke-linejoin: miter; stroke-miterlimit: 4; fill: rgb(255,255,255); fill-rule: nonzero; opacity: 1;"  cx="0" cy="0" r="9" />
</g>
		<g transform="matrix(1 0 0 1 98.44 -213.12)"  >
<circle style="stroke: rgb(51,51,51); stroke-width: 1; stroke-dasharray: none; stroke-linecap: butt; stroke-dashoffset: 0; stroke-linejoin: miter; stroke-miterlimit: 4; fill: rgb(255,255,255); fill-rule: nonzero; opacity: 1;"  cx="0" cy="0" r="9" />
</g>
		<g transform="matrix(1 0 0 1 98.44 -175.12)"  >
<circle style="stroke: rgb(51,51,51); stroke-width: 1; stroke-dasharray: none; stroke-linecap: butt; stroke-dashoffset: 0; stroke-linejoin: miter; stroke-miterlimit: 4; fill: rgb(255,255,255); fill-rule: nonzero; opacity: 1;"  cx="0" cy="0" r="9" />
</g>
		<g transform="matrix(1 0 0 1 98.44 -137.12)"  >
<circle style="stroke: rgb(51,51,51); stroke-width: 1; stroke-dasharray: none; stroke-linecap: butt; stroke-dashoffset: 0; stroke-linejoin: miter; stroke-miterlimit: 4; fill: rgb(255,255,255); fill-rule: nonzero; opacity: 1;"  cx="0" cy="0" r="9" />
</g>
		<g transform="matrix(1 0 0 1 98.44 -99.12)"  >
<circle style="stroke: rgb(51,51,51); stroke-width: 1; stroke-dasharray: none; stroke-linecap: butt; stroke-dashoffset: 0; stroke-linejoin: miter; stroke-miterlimit: 4; fill: rgb(255,255,255); fill-rule: nonzero; opacity: 1;"  cx="0" cy="0" r="9" />
</g>
		<g transform="matrix(1 0 0 1 98.44 -61.12)"  >
<circle style="stroke: rgb(51,51,51); stroke-width: 1; stroke-dasharray: none; stroke-linecap: butt; stroke-dashoffset: 0; stroke-linejoin: miter; stroke-miterlimit: 4; fill: rgb(255,255,255); fill-rule: nonzero; opacity: 1;"  cx="0" cy="0" r="9" />
</g>
		<g transform="matrix(1 0 0 1 98.44 -23.12)"  >
<circle style="stroke: rgb(51,51,51); stroke-width: 1; stroke-dasharray: none; stroke-linecap: butt; stroke-dashoffset: 0; stroke-linejoin: miter; stroke-miterlimit: 4; fill: rgb(255,255,255); fill-rule: nonzero; opacity: 1;"  cx="0" cy="0" r="9" />
</g>
		<g transform="matrix(1 0 0 1 98.44 14.88)"  >
<circle style="stroke: rgb(51,51,51); stroke-width: 1; stroke-dasharray: none; stroke-linecap: butt; stroke-dashoffset: 0; stroke-linejoin: miter; stroke-miterlimit: 4; fill: rgb(255,255,255); fill-rule: nonzero; opacity: 1;"  cx="0" cy="0" r="9" />
</g>
		<g transform="matrix(1 0 0 1 98.44 52.88)"  >
<circle style="stroke: rgb(51,51,51); stroke-width: 1; stroke-dasharray: none; stroke-linecap: butt; stroke-dashoffset: 0; stroke-linejoin: miter; stroke-miterlimit: 4; fill: rgb(255,255,255); fill-rule: nonzero; opacity: 1;"  cx="0" cy="0" r="9" />
</g>
		<g transform="matrix(1 0 0 1 98.44 90.88)"  >
<circle style="stroke: rgb(51,51,51); stroke-width: 1; stroke-dasharray: none; stroke-linecap: butt; stroke-dashoffset: 0; stroke-linejoin: miter; stroke-miterlimit: 4; fill: rgb(255,255,255); fill-rule: nonzero; opacity: 1;"  cx="0" cy="0" r="9" />
</g>
		<g transform="matrix(1 0 0 1 98.44 128.88)"  >
<circle style="stroke: rgb(51,51,51); stroke-width: 1; stroke-dasharray: none; stroke-linecap: butt; stroke-dashoffset: 0; stroke-linejoin: miter; stroke-miterlimit: 4; fill: rgb(255,255,255); fill-rule: nonzero; opacity: 1;"  cx="0" cy="0" r="9" />
</g>
		<g transform="matrix(1 0 0 1 98.44 166.88)"  >
<circle style="stroke: rgb(51,51,51); stroke-width: 1; stroke-dasharray: none; stroke-linecap: butt; stroke-dashoffset: 0; stroke-linejoin: miter; stroke-miterlimit: 4; fill: rgb(255,255,255); fill-rule: nonzero; opacity: 1;"  cx="0" cy="0" r="9" />
</g>
		<g transform="matrix(1 0 0 1 110.93 205.32)" style=""  >
		<text xml:space="preserve" font-family="Times New Roman" font-size="12" font-style="normal" font-weight="normal" style="stroke: none; stroke-width: 1; stroke-dasharray: none; stroke-linecap: butt; stroke-dashoffset: 0; stroke-linejoin: miter; stroke-miterlimit: 4; fill: rgb(0,0,0); fill-rule: nonzero; opacity: 1; white-space: pre;" ><tspan x="-47.49" y="3.77" >Hidden Layer ∈ ℝ¹²</tspan></text>
</g>
		<g transform="matrix(1 0 0 1 232.44 -42.12)"  >
<circle style="stroke: rgb(51,51,51); stroke-width: 1; stroke-dasharray: none; stroke-linecap: butt; stroke-dashoffset: 0; stroke-linejoin: miter; stroke-miterlimit: 4; fill: rgb(255,255,255); fill-rule: nonzero; opacity: 1;"  cx="0" cy="0" r="9" />
</g>
		<g transform="matrix(1 0 0 1 242.14 205.32)" style=""  >
		<text xml:space="preserve" font-family="Times New Roman" font-size="12" font-style="normal" font-weight="normal" style="stroke: none; stroke-width: 1; stroke-dasharray: none; stroke-linecap: butt; stroke-dashoffset: 0; stroke-linejoin: miter; stroke-miterlimit: 4; fill: rgb(0,0,0); fill-rule: nonzero; opacity: 1; white-space: pre;" ><tspan x="-44.7" y="3.77" >Output Layer ∈ ℝ¹</tspan></text>
</g>
</g>
</g>
<g transform="matrix(1 0 0 1 173.17 174.41)" style=""  >
		<text xml:space="preserve" font-family="'Cormorant Garamond', serif" font-size="14" font-style="normal" font-weight="normal" style="stroke: none; stroke-width: 1; stroke-dasharray: none; stroke-linecap: butt; stroke-dashoffset: 0; stroke-linejoin: miter; stroke-miterlimit: 4; fill: rgb(0,0,0); fill-rule: nonzero; opacity: 1; white-space: pre;" ><tspan x="-44" y="4.4" style="font-weight: bold; ">Month</tspan></text>
</g>
<g transform="matrix(1 0 0 1 172.5 201.41)" style=""  >
		<text xml:space="preserve" font-family="'Cormorant Garamond', serif" font-size="13" font-style="normal" font-weight="bold" style="stroke: none; stroke-width: 1; stroke-dasharray: none; stroke-linecap: butt; stroke-dashoffset: 0; stroke-linejoin: miter; stroke-miterlimit: 4; fill: rgb(0,0,0); fill-rule: nonzero; opacity: 1; white-space: pre;" ><tspan x="-44" y="4.4" style="font-size: 14px; font-weight: bold; ">Forecast</tspan></text>
</g>
</svg>